<svg xmlns="http://www.w3.org/2000/svg" viewBox="0 0 480 60" width="480" height="60">
  <defs>
    <linearGradient id="gM" x1="0.15" y1="0" x2="0.85" y2="1">
      <stop offset="0%" stop-color="#C8B8E8"/>
      <stop offset="30%" stop-color="#9B85C8"/>
      <stop offset="60%" stop-color="#7B68AE"/>
      <stop offset="100%" stop-color="#4A3D72"/>
    </linearGradient>
    <linearGradient id="gL" x1="0.3" y1="0" x2="0.7" y2="1">
      <stop offset="0%" stop-color="#D0C0F0"/>
      <stop offset="100%" stop-color="#9B85C8"/>
    </linearGradient>
  </defs>
  <g transform="translate(30,31) scale(0.105)">
    <path d="M0,-195 C30,-155 50,-100 50,-55 C50,-20 35,5 0,18 C-35,5 -50,-20 -50,-55 C-50,-100 -30,-155 0,-195Z" fill="url(#gM)" stroke="#3D325E" stroke-width="2.5"/>
    <g transform="rotate(-42)"><path d="M0,-175 C28,-138 45,-90 45,-50 C45,-18 32,5 0,16 C-32,5 -45,-18 -45,-50 C-45,-90 -28,-138 0,-175Z" fill="url(#gM)" stroke="#3D325E" stroke-width="2.5"/></g>
    <g transform="rotate(42)"><path d="M0,-175 C28,-138 45,-90 45,-50 C45,-18 32,5 0,16 C-32,5 -45,-18 -45,-50 C-45,-90 -28,-138 0,-175Z" fill="url(#gM)" stroke="#3D325E" stroke-width="2.5"/></g>
    <g transform="rotate(-80)"><path d="M0,-160 C25,-125 40,-82 40,-45 C40,-15 28,8 0,16 C-28,8 -40,-15 -40,-45 C-40,-82 -25,-125 0,-160Z" fill="url(#gM)" stroke="#3D325E" stroke-width="2.5"/></g>
    <g transform="rotate(80)"><path d="M0,-160 C25,-125 40,-82 40,-45 C40,-15 28,8 0,16 C-28,8 -40,-15 -40,-45 C-40,-82 -25,-125 0,-160Z" fill="url(#gM)" stroke="#3D325E" stroke-width="2.5"/></g>
    <path d="M0,-135 C20,-105 32,-68 32,-38 C32,-12 22,6 0,14 C-22,6 -32,-12 -32,-38 C-32,-68 -20,-105 0,-135Z" fill="url(#gL)" stroke="#6B5E95" stroke-width="2" opacity="0.92"/>
    <g transform="rotate(-42)"><path d="M0,-120 C18,-95 28,-62 28,-35 C28,-10 20,6 0,12 C-20,6 -28,-10 -28,-35 C-28,-62 -18,-95 0,-120Z" fill="url(#gL)" stroke="#6B5E95" stroke-width="2" opacity="0.88"/></g>
    <g transform="rotate(42)"><path d="M0,-120 C18,-95 28,-62 28,-35 C28,-10 20,6 0,12 C-20,6 -28,-10 -28,-35 C-28,-62 -18,-95 0,-120Z" fill="url(#gL)" stroke="#6B5E95" stroke-width="2" opacity="0.88"/></g>
    <g transform="rotate(-80)"><path d="M0,-105 C16,-82 24,-55 24,-30 C24,-8 16,6 0,12 C-16,6 -24,-8 -24,-30 C-24,-55 -16,-82 0,-105Z" fill="url(#gL)" stroke="#6B5E95" stroke-width="2" opacity="0.85"/></g>
    <g transform="rotate(80)"><path d="M0,-105 C16,-82 24,-55 24,-30 C24,-8 16,6 0,12 C-16,6 -24,-8 -24,-30 C-24,-55 -16,-82 0,-105Z" fill="url(#gL)" stroke="#6B5E95" stroke-width="2" opacity="0.85"/></g>
    <circle cx="0" cy="14" r="12" fill="url(#gL)" stroke="#3D325E" stroke-width="2.8"/>
    <circle cx="0" cy="14" r="6.5" fill="url(#gM)" stroke="#332A52" stroke-width="1.8"/>
  </g>
  <!-- Navy text on light bg -->
  <text x="68" y="29" font-family="'Georgia','Times New Roman',serif" font-size="22" font-weight="bold" fill="#2F3269" letter-spacing="2">360 RADIANCE</text>
  <text x="68" y="47" font-family="'Georgia','Times New Roman',serif" font-size="11" fill="#442F69" letter-spacing="4.5" opacity="0.85">SKIN CARE</text>
</svg>
